Simulation
nRows=16
nColumns=15
endheader
time  TH_x TH_y TH_z SC_y  SC_z  SC_x  AC_y  AC_z  AC_x  GH_y  GH_z  GH_yy  EL_x  PS_y
1.55  0.000000  0.000000  0.000000  -35.64385189175594  7.493776784507508  25.516119608825875  59.89799531515434  6.351105662758467  -4.720226094162678  16.85355322045009  54.936332048234405  -18.135077458070622  17.93586098223803  0.000000
1.581  0.000000  0.000000  0.000000  -36.11206660103381  7.799848627778546  25.69388618852239  60.07998719998154  6.783720310369581  -4.00705399953449  16.392214710129448  55.442327246998794  -17.945375918219273  17.922832030480283  0.000000
1.612  0.000000  0.000000  0.000000  -36.54188215393673  8.066598853142079  25.813264507939785  60.24164781877741  7.202335296198545  -3.3466421403673974  15.98971731535099  55.88191897314337  -17.775544772394525  17.916904287548988  0.000000
1.643  0.000000  0.000000  0.000000  -36.92944876492178  8.289956030629426  25.879570847002693  60.38317509523937  7.597651058522433  -2.7544173703847274  15.65217182488931  56.247095273015105  -17.629075235996986  17.919248793150693  0.000000
1.674  0.000000  0.000000  0.000000  -37.273909237244816  8.468829113510596  25.899466965780434  60.50388259643096  7.960882807474773  -2.2433015611815015  15.38763307061282  56.52823875189734  -17.510299020079707  17.92978230341353  0.000000
1.705  0.000000  0.000000  0.000000  -37.573969531388016  8.604759385712347  25.879079815621623  60.60129432194045  8.282851811098736  -1.8240768844242923  15.205861070201486  56.71572358284246  -17.423232093195796  17.946824730091194  0.000000
1.736  0.000000  0.000000  0.000000  -37.824614391866504  8.70026161621574  25.822174049393997  60.67134014152878  8.553527572769035  -1.5062617671769303  15.116440802670661  56.80168053221444  -17.372044915815717  17.96758288998402  0.000000
1.767  0.000000  0.000000  0.000000  -38.01580536802301  8.757090592517544  25.72940400702103  60.70930442433151  8.762403586009336  -1.2984839578926517  15.126382225325312  56.78097163361662  -17.362486819580003  17.989012625225307  0.000000
1.798  0.000000  0.000000  0.000000  -38.13392456089576  8.775070616871236  25.599304791516786  60.71127901580197  8.900038231944245  -1.2081329224144237  15.238265134865012  56.650932820658426  -17.403153577674765  18.00855291445995  0.000000
1.829  0.000000  0.000000  0.000000  -38.165330264260554  8.751707554896008  25.430645565135887  60.67564765158071  8.959995250274945  -1.240394907280061  15.449520377859862  56.4102528055847  -17.505883001654052  18.02462993099096  0.000000
1.8599999999999999  0.000000  0.000000  0.000000  -38.10024217014668  8.682522355488732  25.224685433072253  60.60404877524539  8.94011857347847  -1.397344680884897  15.752944439783938  56.057939735993  -17.68462435818011  18.03696345659955  0.000000
1.891  0.000000  0.000000  0.000000  -37.93533538475838  8.562328757474516  24.985882376562056  60.50097565412784  8.842226385107121  -1.6775287596367425  16.138539179833288  55.593266886437426  -17.9523398293993  18.04669401843305  0.000000
1.922  0.000000  0.000000  0.000000  -37.67457909844982  8.387012386698292  24.720691620544134  60.37216278720087  8.67045089903  -2.076157824979131  16.596158307828173  55.0169418472751  -18.3165277229178  18.056483378018303  0.000000
1.953  0.000000  0.000000  0.000000  -37.32845202715258  8.155199254835415  24.43552961969099  60.222424445589624  8.42941875401392  -2.5857483553858716  17.11804795347054  54.33266043871142  -18.77509242588936  18.0703735760905  0.000000
1.984  0.000000  0.000000  0.000000  -36.912191581382956  7.869092096182181  24.135168586544285  60.05431859171605  8.123231364766305  -3.1964728344233593  17.699865159210315  53.54807728739592  -19.315081688217074  18.093304550693368  0.000000
2.015  0.000000  0.000000  0.000000  -36.443655400249675  7.5334837876428065  23.822421396143575  59.86860895388249  7.755783401585762  -3.8964301388509455  18.33953527798439  52.67497370889167  -19.915251273473398  18.13016470805392  0.000000
